<svg id="svg" version="1.1" xmlns="http://www.w3.org/2000/svg" xmlns:xlink="http://www.w3.org/1999/xlink" width="400" height="364.8535564853557" viewBox="0, 0, 400,364.8535564853557"><g id="svgg"><path id="path0" d="M321.296 75.365 C 279.850 116.816,245.693 150.730,245.390 150.730 C 245.087 150.730,244.153 150.072,243.314 149.268 C 242.475 148.465,240.661 146.721,239.284 145.393 C 237.906 144.065,234.785 141.333,232.349 139.321 C 229.913 137.309,227.673 135.385,227.372 135.044 C 227.071 134.703,224.854 132.807,222.445 130.830 C 220.036 128.854,217.716 126.898,217.289 126.483 C 216.214 125.440,214.536 124.043,213.316 123.175 C 211.081 121.585,208.940 119.884,206.233 117.548 C 205.205 116.661,204.061 115.758,203.690 115.541 C 202.302 114.728,200.937 113.667,199.438 112.239 C 198.588 111.429,197.200 110.356,196.352 109.854 C 195.505 109.352,194.471 108.572,194.055 108.120 C 193.639 107.669,193.088 107.299,192.830 107.299 C 192.572 107.299,192.186 106.971,191.971 106.569 C 191.756 106.168,191.407 105.839,191.195 105.839 C 190.804 105.839,190.335 105.505,186.583 102.545 C 183.824 100.367,181.628 98.905,181.118 98.905 C 180.892 98.905,180.602 98.577,180.474 98.175 C 180.347 97.774,180.072 97.445,179.864 97.445 C 179.655 97.445,179.030 97.076,178.475 96.624 C 177.919 96.172,176.992 95.520,176.415 95.175 C 174.403 93.971,173.913 93.609,173.434 92.974 C 173.168 92.623,172.740 92.336,172.481 92.336 C 172.223 92.336,171.717 92.011,171.359 91.615 C 171.000 91.219,170.359 90.787,169.934 90.657 C 169.508 90.526,168.914 90.188,168.613 89.907 C 167.811 89.158,165.625 87.661,164.766 87.274 C 164.356 87.089,163.802 86.674,163.535 86.352 C 163.268 86.030,162.888 85.766,162.690 85.766 C 162.493 85.766,161.844 85.356,161.247 84.854 C 160.651 84.352,159.955 83.942,159.700 83.942 C 159.446 83.942,158.928 83.600,158.549 83.182 C 158.171 82.764,157.365 82.184,156.759 81.894 C 155.071 81.087,154.259 80.550,153.369 79.653 C 152.921 79.202,152.250 78.832,151.878 78.832 C 151.506 78.832,150.758 78.422,150.217 77.920 C 149.675 77.418,148.995 77.007,148.704 77.007 C 148.413 77.007,148.175 76.861,148.175 76.682 C 148.175 76.503,147.540 76.102,146.763 75.792 C 145.986 75.481,145.256 74.979,145.140 74.677 C 145.024 74.375,144.341 74.018,143.622 73.883 C 142.904 73.748,142.158 73.342,141.964 72.980 C 141.770 72.618,141.135 72.217,140.552 72.089 C 139.969 71.961,139.203 71.537,138.850 71.147 C 138.497 70.757,138.007 70.438,137.762 70.438 C 137.516 70.438,137.112 70.192,136.863 69.892 C 136.614 69.592,135.772 69.155,134.993 68.922 C 134.214 68.689,133.577 68.354,133.577 68.177 C 133.577 68.001,132.879 67.526,132.026 67.121 C 131.172 66.717,129.653 65.911,128.650 65.332 C 127.646 64.752,126.414 64.104,125.912 63.891 C 125.411 63.678,124.754 63.343,124.453 63.147 C 123.418 62.472,118.719 60.219,118.346 60.219 C 118.141 60.219,117.775 59.981,117.534 59.690 C 117.292 59.399,116.492 58.968,115.755 58.732 C 115.019 58.495,114.159 58.078,113.845 57.805 C 113.530 57.532,112.709 57.202,112.020 57.072 C 111.330 56.942,110.438 56.551,110.036 56.203 C 109.635 55.855,108.827 55.456,108.240 55.317 C 107.654 55.178,106.770 54.746,106.275 54.357 C 105.781 53.968,105.013 53.650,104.569 53.650 C 104.125 53.650,103.391 53.329,102.939 52.937 C 102.487 52.544,101.372 52.112,100.462 51.975 C 99.552 51.839,98.524 51.443,98.176 51.096 C 97.829 50.749,96.907 50.346,96.127 50.202 C 95.346 50.057,94.450 49.707,94.134 49.424 C 93.818 49.140,92.751 48.799,91.762 48.664 C 90.773 48.530,89.799 48.200,89.599 47.931 C 89.398 47.662,88.248 47.242,87.044 46.997 C 85.839 46.753,84.769 46.436,84.664 46.292 C 84.351 45.862,82.499 45.255,81.497 45.255 C 80.982 45.255,80.029 44.927,79.378 44.525 C 78.703 44.107,77.199 43.695,75.868 43.564 C 74.588 43.437,73.251 43.082,72.898 42.775 C 72.504 42.432,71.095 42.116,69.249 41.956 C 67.594 41.813,65.694 41.410,65.027 41.062 C 64.183 40.623,62.623 40.376,59.917 40.256 C 57.775 40.160,55.519 39.857,54.904 39.582 C 52.418 38.470,38.173 38.585,36.721 39.729 C 36.497 39.905,34.957 40.138,33.298 40.246 C 31.257 40.379,29.808 40.690,28.816 41.207 C 28.009 41.627,26.780 41.971,26.084 41.971 C 25.304 41.971,24.537 42.251,24.088 42.701 C 23.686 43.102,23.070 43.433,22.719 43.436 C 22.368 43.439,21.670 43.680,21.168 43.971 C 20.666 44.262,19.557 44.829,18.704 45.230 C 17.851 45.631,17.153 46.127,17.153 46.332 C 17.153 46.538,16.619 46.929,15.966 47.202 C 14.601 47.772,8.759 53.133,8.759 53.816 C 8.759 54.066,8.307 54.781,7.755 55.405 C 5.543 57.903,5.109 58.543,5.109 59.308 C 5.109 59.747,4.784 60.400,4.387 60.760 C 3.989 61.120,3.562 61.955,3.438 62.616 C 3.314 63.277,2.991 63.903,2.720 64.007 C 2.450 64.111,2.050 64.902,1.833 65.766 C 1.616 66.629,1.156 67.828,0.811 68.431 C -0.078 69.979,-0.161 112.374,0.721 113.869 C 1.017 114.370,1.450 116.061,1.683 117.626 C 1.915 119.190,2.350 120.750,2.648 121.093 C 2.946 121.435,3.304 122.617,3.444 123.719 C 3.584 124.820,3.995 126.216,4.358 126.821 C 4.721 127.425,5.106 128.630,5.215 129.499 C 5.324 130.368,5.655 131.353,5.951 131.689 C 6.247 132.025,6.603 132.992,6.742 133.840 C 6.881 134.687,7.288 135.754,7.647 136.212 C 8.006 136.669,8.421 137.619,8.570 138.321 C 8.719 139.024,9.053 139.845,9.313 140.146 C 9.573 140.447,9.967 141.372,10.188 142.202 C 10.408 143.032,10.814 143.897,11.088 144.125 C 11.363 144.353,11.688 145.168,11.811 145.937 C 11.934 146.706,12.365 147.756,12.769 148.269 C 13.173 148.783,13.504 149.524,13.504 149.917 C 13.504 150.310,13.811 151.023,14.186 151.502 C 14.561 151.981,14.981 152.889,15.119 153.521 C 15.257 154.152,15.689 154.958,16.079 155.311 C 16.469 155.664,16.788 156.397,16.788 156.940 C 16.788 157.483,17.199 158.532,17.701 159.272 C 18.203 160.011,18.613 160.833,18.613 161.098 C 18.613 161.363,18.920 161.972,19.296 162.451 C 19.671 162.929,20.094 163.853,20.236 164.503 C 20.378 165.153,20.659 165.787,20.861 165.912 C 21.063 166.037,21.553 166.819,21.950 167.650 C 23.043 169.936,23.956 171.513,24.601 172.225 C 24.921 172.579,25.182 173.130,25.182 173.450 C 25.182 173.770,25.593 174.520,26.095 175.116 C 26.597 175.712,27.007 176.526,27.007 176.924 C 27.007 177.322,27.279 177.873,27.611 178.149 C 27.943 178.424,28.450 179.142,28.738 179.745 C 29.636 181.626,30.469 183.040,31.308 184.107 C 31.753 184.672,32.117 185.432,32.117 185.795 C 32.117 186.158,32.407 186.670,32.761 186.932 C 33.115 187.194,33.619 187.819,33.880 188.321 C 34.938 190.353,35.648 191.523,36.417 192.501 C 36.862 193.066,37.226 193.728,37.226 193.971 C 37.226 194.214,37.555 194.710,37.956 195.073 C 38.358 195.436,38.686 195.925,38.686 196.159 C 38.686 196.392,39.097 196.941,39.599 197.377 C 40.100 197.813,40.511 198.392,40.511 198.664 C 40.511 198.935,40.839 199.454,41.241 199.818 C 41.642 200.181,41.971 200.670,41.971 200.905 C 41.971 201.140,42.381 201.718,42.883 202.190 C 43.385 202.661,43.796 203.245,43.796 203.486 C 43.796 203.728,44.067 204.151,44.400 204.426 C 44.732 204.702,45.227 205.461,45.499 206.113 C 45.772 206.766,46.161 207.299,46.364 207.299 C 46.567 207.299,46.898 207.669,47.099 208.120 C 47.527 209.083,49.010 211.247,49.807 212.074 C 50.114 212.392,50.365 212.840,50.365 213.070 C 50.365 213.299,50.776 213.756,51.277 214.085 C 51.779 214.413,52.190 214.884,52.190 215.131 C 52.190 215.378,52.503 215.864,52.887 216.211 C 53.270 216.558,53.683 217.236,53.804 217.717 C 53.924 218.198,54.350 218.767,54.749 218.980 C 55.148 219.194,55.474 219.604,55.474 219.891 C 55.474 220.177,55.803 220.588,56.204 220.803 C 56.606 221.018,56.937 221.393,56.939 221.637 C 56.942 221.881,57.272 222.491,57.672 222.993 C 58.073 223.495,59.631 225.438,61.135 227.312 C 62.638 229.186,63.869 230.844,63.869 230.995 C 63.869 231.287,64.626 232.225,66.908 234.761 C 67.677 235.615,68.556 236.791,68.863 237.374 C 69.499 238.583,69.821 239.010,71.350 240.668 C 73.862 243.390,75.222 245.013,75.608 245.750 C 76.111 246.708,78.524 249.655,80.412 251.615 C 81.180 252.414,82.060 253.552,82.367 254.145 C 82.955 255.283,83.162 255.566,84.754 257.419 C 86.813 259.815,88.408 260.949,89.718 260.949 C 90.674 260.949,91.896 259.887,98.540 253.285 C 102.782 249.069,106.406 245.620,106.594 245.620 C 106.781 245.620,106.934 245.369,106.934 245.062 C 106.934 244.754,107.200 244.401,107.525 244.276 C 108.283 243.985,110.584 241.692,110.584 241.229 C 110.584 241.035,110.819 240.876,111.107 240.876 C 111.394 240.876,111.731 240.556,111.855 240.165 C 111.980 239.773,112.393 239.354,112.774 239.234 C 113.155 239.113,113.563 238.709,113.681 238.336 C 113.800 237.964,114.139 237.566,114.435 237.452 C 115.628 236.994,115.793 233.614,114.658 232.872 C 114.483 232.758,114.111 232.231,113.830 231.702 C 113.324 230.746,111.523 228.532,109.169 225.975 C 108.491 225.238,107.505 223.997,106.979 223.217 C 105.280 220.700,104.939 220.241,104.197 219.464 C 103.451 218.683,102.972 218.073,101.095 215.511 C 99.222 212.955,98.740 212.340,97.993 211.555 C 97.591 211.133,96.732 209.962,96.083 208.952 C 94.614 206.669,93.842 205.642,92.792 204.580 C 92.340 204.122,91.971 203.603,91.970 203.425 C 91.970 203.248,91.601 202.655,91.149 202.108 C 90.698 201.561,89.918 200.518,89.416 199.790 C 88.914 199.062,88.210 198.148,87.850 197.759 C 87.491 197.370,87.035 196.688,86.837 196.245 C 86.318 195.079,84.709 192.933,84.099 192.592 C 83.812 192.431,83.577 191.993,83.577 191.619 C 83.577 191.244,83.254 190.554,82.860 190.086 C 81.033 187.914,80.374 186.986,80.150 186.271 C 80.017 185.846,79.584 185.204,79.188 184.846 C 78.791 184.487,78.467 183.978,78.467 183.715 C 78.467 183.452,78.158 183.072,77.780 182.869 C 77.402 182.667,76.984 181.924,76.852 181.219 C 76.717 180.500,76.297 179.768,75.897 179.554 C 75.504 179.343,75.182 178.989,75.182 178.766 C 75.182 178.543,74.567 177.462,73.814 176.364 C 72.271 174.114,72.143 173.901,71.554 172.628 C 71.322 172.126,70.733 171.058,70.245 170.255 C 69.757 169.453,69.159 168.385,68.916 167.883 C 68.673 167.381,68.197 166.642,67.859 166.241 C 67.520 165.839,67.051 164.910,66.816 164.175 C 66.580 163.440,66.150 162.747,65.858 162.635 C 65.567 162.523,65.328 162.048,65.328 161.579 C 65.328 161.110,64.918 160.169,64.416 159.489 C 63.914 158.809,63.504 157.956,63.504 157.593 C 63.504 157.231,63.175 156.606,62.774 156.204 C 62.372 155.803,62.042 155.187,62.040 154.836 C 62.039 154.484,61.633 153.376,61.139 152.372 C 60.646 151.369,60.237 150.282,60.230 149.958 C 60.224 149.634,59.914 148.977,59.542 148.498 C 59.170 148.019,58.745 146.971,58.599 146.168 C 58.453 145.365,58.039 144.215,57.680 143.613 C 57.322 143.011,56.930 141.633,56.810 140.552 C 56.690 139.471,56.354 138.321,56.064 137.997 C 54.674 136.447,54.611 122.424,55.987 120.809 C 56.246 120.504,56.571 119.939,56.709 119.553 C 57.346 117.771,59.006 115.697,60.095 115.324 C 60.730 115.106,61.335 114.705,61.439 114.433 C 61.544 114.160,62.135 113.826,62.753 113.691 C 63.371 113.555,64.150 113.170,64.485 112.835 C 65.393 111.927,79.197 111.966,80.206 112.878 C 80.627 113.259,81.998 113.608,83.915 113.823 C 85.588 114.010,87.070 114.346,87.209 114.570 C 87.501 115.043,89.580 115.693,90.797 115.693 C 91.258 115.693,92.080 116.007,92.624 116.389 C 93.168 116.772,94.213 117.187,94.945 117.311 C 95.678 117.436,96.471 117.772,96.708 118.057 C 96.946 118.343,97.860 118.685,98.741 118.817 C 99.621 118.949,100.530 119.285,100.761 119.563 C 100.991 119.840,101.842 120.246,102.652 120.464 C 103.462 120.682,104.353 121.090,104.633 121.370 C 104.913 121.649,105.773 122.048,106.543 122.256 C 107.314 122.463,108.148 122.878,108.396 123.178 C 108.645 123.477,109.135 123.723,109.485 123.723 C 109.834 123.723,110.525 124.041,111.020 124.430 C 111.514 124.819,112.399 125.255,112.985 125.398 C 113.571 125.541,114.443 125.962,114.921 126.333 C 115.400 126.704,116.008 127.007,116.271 127.007 C 116.535 127.007,117.194 127.418,117.735 127.920 C 118.277 128.422,118.992 128.832,119.325 128.832 C 119.659 128.832,120.488 129.243,121.168 129.745 C 121.848 130.246,122.647 130.657,122.944 130.657 C 123.240 130.657,123.772 130.918,124.125 131.238 C 124.789 131.839,126.361 132.770,128.314 133.718 C 128.932 134.019,129.650 134.520,129.910 134.833 C 130.169 135.146,130.683 135.401,131.052 135.401 C 131.421 135.401,132.041 135.742,132.429 136.158 C 133.127 136.908,134.475 137.734,136.770 138.818 C 137.422 139.127,137.956 139.539,137.956 139.734 C 137.956 139.930,138.511 140.273,139.189 140.496 C 139.868 140.720,140.714 141.226,141.071 141.620 C 141.427 142.013,141.922 142.336,142.171 142.336 C 142.419 142.336,142.715 142.577,142.828 142.872 C 142.941 143.166,143.575 143.634,144.236 143.910 C 144.897 144.186,145.663 144.684,145.939 145.016 C 146.214 145.349,146.629 145.620,146.861 145.620 C 147.093 145.620,147.564 145.949,147.908 146.350 C 148.252 146.752,148.760 147.080,149.038 147.080 C 149.315 147.080,150.589 147.893,151.870 148.887 C 153.150 149.881,154.634 151.030,155.167 151.442 C 155.701 151.853,156.293 152.190,156.483 152.190 C 156.787 152.190,157.536 152.770,159.489 154.518 C 159.790 154.788,160.447 155.221,160.949 155.481 C 161.451 155.741,163.011 156.888,164.416 158.029 C 165.821 159.171,167.353 160.307,167.820 160.554 C 168.703 161.023,169.499 161.658,170.945 163.047 C 171.415 163.499,171.977 163.869,172.195 163.869 C 172.413 163.869,172.745 164.143,172.933 164.478 C 173.120 164.814,173.753 165.347,174.338 165.664 C 176.611 166.896,177.733 167.719,177.735 168.157 C 177.736 168.408,177.896 168.613,178.090 168.613 C 178.283 168.613,178.981 169.110,179.641 169.718 C 181.703 171.620,181.911 171.785,182.847 172.262 C 183.349 172.517,184.046 172.992,184.396 173.316 C 184.746 173.640,185.814 174.596,186.768 175.439 C 187.723 176.283,189.243 177.646,190.146 178.468 C 191.049 179.290,192.665 180.555,193.737 181.279 C 194.809 182.003,195.875 182.899,196.106 183.269 C 196.337 183.639,196.657 183.942,196.817 183.942 C 196.978 183.942,197.916 184.722,198.903 185.675 C 201.437 188.122,203.773 190.166,204.592 190.653 C 205.361 191.109,207.476 192.986,210.398 195.803 C 211.438 196.807,213.807 199.024,215.661 200.730 C 217.516 202.436,220.211 205.022,221.651 206.476 C 223.092 207.930,224.445 209.121,224.660 209.122 C 225.138 209.125,252.475 236.428,252.998 237.425 C 254.715 240.698,259.022 243.130,260.401 241.606 C 260.765 241.204,261.190 240.876,261.345 240.876 C 261.613 240.876,303.018 199.466,305.242 196.973 C 305.816 196.330,315.851 186.195,327.542 174.453 C 339.232 162.710,349.070 152.692,349.404 152.190 C 349.738 151.688,359.780 141.501,371.721 129.553 C 383.661 117.605,393.431 107.627,393.431 107.381 C 393.431 107.136,393.666 106.934,393.954 106.934 C 394.241 106.934,394.581 106.606,394.708 106.204 C 394.835 105.803,395.080 105.474,395.251 105.474 C 395.422 105.474,396.561 104.476,397.781 103.255 L 400.000 101.036 400.000 50.518 L 400.000 0.000 398.326 -0.000 L 396.652 -0.000 321.296 75.365 M171.911 226.550 C 170.813 226.750,35.950 361.514,35.400 362.961 C 35.200 363.486,35.036 364.152,35.036 364.440 C 35.036 365.279,35.700 365.043,35.874 364.142 L 36.032 363.321 36.082 364.142 L 36.131 364.964 86.850 364.964 L 137.569 364.964 168.876 333.642 C 186.094 316.415,200.736 301.675,201.414 300.886 C 202.091 300.098,207.387 294.673,213.184 288.832 C 224.973 276.951,224.720 277.339,222.690 274.242 C 222.154 273.424,221.338 272.166,220.877 271.446 C 220.416 270.727,219.801 270.047,219.509 269.935 C 219.217 269.823,218.978 269.545,218.978 269.318 C 218.978 269.091,218.198 268.124,217.245 267.169 C 215.012 264.933,211.228 260.668,210.796 259.901 C 210.297 259.014,193.001 241.779,192.153 241.324 C 191.366 240.901,189.864 239.580,185.626 235.584 C 184.136 234.179,182.316 232.619,181.582 232.117 C 180.847 231.615,179.392 230.547,178.348 229.745 C 174.228 226.575,173.569 226.247,171.911 226.550 M299.373 248.996 C 277.552 270.768,278.447 269.568,281.563 272.891 C 282.463 273.850,283.202 274.747,283.205 274.883 C 283.209 275.020,284.690 276.623,286.496 278.447 C 288.303 280.271,289.781 281.895,289.781 282.057 C 289.781 282.218,290.151 282.677,290.602 283.077 C 291.054 283.478,291.834 284.354,292.336 285.025 C 293.679 286.820,295.249 288.792,295.832 289.416 C 298.109 291.853,299.080 293.075,299.690 294.270 C 300.079 295.032,300.637 295.748,300.929 295.860 C 301.221 295.972,301.460 296.245,301.460 296.468 C 301.460 296.690,301.787 297.206,302.188 297.615 C 303.497 298.951,304.640 300.532,304.902 301.369 C 305.043 301.821,305.476 302.360,305.864 302.568 C 306.252 302.776,306.569 303.178,306.569 303.462 C 306.569 303.746,306.817 304.117,307.119 304.286 C 307.421 304.455,308.232 305.490,308.921 306.585 C 309.610 307.680,310.437 308.905,310.760 309.307 C 311.334 310.020,311.496 310.283,312.919 312.817 C 313.300 313.496,313.916 314.266,314.288 314.528 C 314.659 314.790,314.964 315.184,314.964 315.403 C 314.964 315.621,315.579 316.699,316.332 317.797 C 317.085 318.895,317.861 320.061,318.057 320.389 C 319.390 322.624,320.318 323.993,320.882 324.558 C 321.240 324.917,321.533 325.525,321.533 325.908 C 321.533 326.291,321.943 327.048,322.445 327.589 C 322.947 328.131,323.358 328.771,323.358 329.011 C 323.358 329.252,323.686 329.746,324.088 330.109 C 324.489 330.473,324.818 330.991,324.818 331.261 C 324.818 331.531,325.121 332.056,325.493 332.427 C 325.864 332.798,326.347 333.616,326.566 334.244 C 326.785 334.872,327.141 335.595,327.357 335.850 C 328.364 337.037,329.914 339.657,329.920 340.181 C 329.924 340.501,330.241 341.047,330.624 341.394 C 331.008 341.741,331.428 342.451,331.559 342.973 C 331.690 343.494,332.115 344.325,332.504 344.820 C 332.893 345.314,333.212 346.001,333.212 346.346 C 333.212 346.691,333.622 347.417,334.124 347.958 C 334.626 348.500,335.036 349.237,335.036 349.597 C 335.036 349.957,335.365 350.549,335.766 350.912 C 336.168 351.276,336.496 351.936,336.496 352.380 C 336.496 352.823,336.800 353.578,337.171 354.057 C 337.541 354.535,337.962 355.407,338.106 355.993 C 338.249 356.579,338.685 357.464,339.074 357.958 C 339.463 358.453,339.781 359.183,339.781 359.580 C 339.781 359.977,340.107 360.899,340.505 361.629 C 340.903 362.359,341.391 363.408,341.590 363.960 L 341.953 364.964 371.009 364.964 L 400.065 364.964 399.941 360.986 C 399.848 357.977,399.674 356.844,399.227 356.333 C 398.903 355.961,398.529 354.947,398.398 354.080 C 398.266 353.212,397.849 352.062,397.471 351.525 C 397.093 350.987,396.682 349.948,396.557 349.216 C 396.433 348.483,396.088 347.681,395.790 347.435 C 395.492 347.188,395.146 346.344,395.021 345.560 C 394.896 344.775,394.513 343.934,394.171 343.691 C 393.829 343.447,393.447 342.612,393.323 341.834 C 393.199 341.057,392.836 340.132,392.516 339.779 C 392.197 339.426,391.763 338.502,391.552 337.726 C 391.341 336.949,390.959 336.068,390.703 335.766 C 390.448 335.465,390.045 334.616,389.808 333.880 C 389.572 333.143,389.157 332.356,388.886 332.131 C 388.615 331.906,388.284 331.290,388.152 330.762 C 388.019 330.234,387.593 329.397,387.204 328.903 C 386.815 328.408,386.496 327.720,386.496 327.372 C 386.496 327.025,386.192 326.349,385.819 325.870 C 385.447 325.392,384.942 324.384,384.696 323.631 C 384.451 322.879,384.110 322.263,383.938 322.263 C 383.766 322.263,383.514 321.893,383.377 321.442 C 383.240 320.990,382.830 320.292,382.467 319.891 C 382.103 319.489,381.693 318.705,381.554 318.147 C 381.416 317.590,380.993 316.968,380.615 316.766 C 380.227 316.558,379.927 316.006,379.927 315.498 C 379.927 315.003,379.603 314.274,379.206 313.878 C 378.810 313.482,378.385 312.755,378.261 312.262 C 378.138 311.770,377.723 311.084,377.339 310.737 C 376.956 310.390,376.642 309.885,376.642 309.615 C 376.642 309.345,376.318 308.799,375.921 308.403 C 375.524 308.006,374.958 307.102,374.662 306.395 C 374.367 305.688,373.963 305.109,373.766 305.109 C 373.568 305.109,373.294 304.740,373.155 304.288 C 372.827 303.217,370.761 300.000,370.401 300.000 C 370.248 300.000,370.009 299.630,369.871 299.179 C 369.544 298.113,367.477 294.891,367.120 294.891 C 366.969 294.891,366.662 294.336,366.438 293.657 C 366.214 292.979,365.709 292.132,365.315 291.776 C 364.921 291.419,364.599 290.932,364.599 290.693 C 364.599 290.455,364.270 289.962,363.869 289.599 C 363.467 289.235,363.139 288.726,363.139 288.466 C 363.139 288.206,362.728 287.551,362.226 287.009 C 361.724 286.468,361.314 285.797,361.314 285.519 C 361.314 285.241,361.075 284.922,360.784 284.810 C 360.493 284.698,360.069 284.045,359.842 283.359 C 359.616 282.673,359.115 281.942,358.730 281.736 C 358.345 281.530,358.026 281.162,358.023 280.918 C 358.013 280.272,355.687 276.823,353.741 274.567 C 353.289 274.044,352.920 273.341,352.920 273.005 C 352.920 272.669,352.550 272.046,352.099 271.621 C 351.011 270.597,350.249 269.587,348.660 267.062 C 347.933 265.908,347.194 264.964,347.018 264.964 C 346.842 264.964,346.533 264.594,346.332 264.142 C 346.131 263.691,345.558 262.746,345.058 262.044 C 344.558 261.341,343.947 260.443,343.699 260.048 C 343.451 259.653,342.797 258.889,342.245 258.350 C 341.693 257.812,341.241 257.199,341.241 256.988 C 341.241 256.778,341.017 256.474,340.743 256.314 C 340.469 256.153,339.990 255.529,339.678 254.927 C 339.366 254.325,338.531 253.205,337.822 252.438 C 337.113 251.671,335.960 250.180,335.260 249.125 C 334.560 248.070,333.730 246.994,333.417 246.734 C 333.103 246.474,332.847 246.098,332.847 245.898 C 332.847 245.698,332.231 244.934,331.478 244.200 C 330.108 242.863,329.606 242.230,327.924 239.710 C 327.429 238.969,326.446 237.784,325.738 237.077 C 325.031 236.369,324.453 235.685,324.453 235.556 C 324.453 235.426,323.488 234.353,322.310 233.171 C 318.499 229.348,320.337 228.079,299.373 248.996 " stroke="none" fill="#144c7c" fill-rule="evenodd"></path><path id="path1" d="" stroke="none" fill="#184c7c" fill-rule="evenodd"></path></g></svg>